<mxfile host="Electron" agent="Mozilla/5.0 (Macintosh; Intel Mac OS X 10_15_7) AppleWebKit/537.36 (KHTML, like Gecko) draw.io/24.7.17 Chrome/128.0.6613.36 Electron/32.0.1 Safari/537.36" version="24.7.17">
  <diagram name="Страница — 1" id="CBC1rgHHHILlYHqByHYL">
    <mxGraphModel dx="1421" dy="864" grid="1" gridSize="10" guides="1" tooltips="1" connect="1" arrows="1" fold="1" page="1" pageScale="1" pageWidth="1100" pageHeight="850" background="#ffffff" math="0" shadow="0">
      <root>
        <mxCell id="0" />
        <mxCell id="1" parent="0" />
        <mxCell id="UtrABaLbU96Mtq_oK4z2-65" value="" style="group" parent="1" vertex="1" connectable="0">
          <mxGeometry x="70" y="80" width="370" height="210" as="geometry" />
        </mxCell>
        <mxCell id="UtrABaLbU96Mtq_oK4z2-1" value="" style="rounded=0;whiteSpace=wrap;html=1;" parent="UtrABaLbU96Mtq_oK4z2-65" vertex="1">
          <mxGeometry width="370" height="210" as="geometry" />
        </mxCell>
        <mxCell id="UtrABaLbU96Mtq_oK4z2-2" value="Logo" style="ellipse;whiteSpace=wrap;html=1;aspect=fixed;" parent="UtrABaLbU96Mtq_oK4z2-65" vertex="1">
          <mxGeometry x="10" y="10" width="40" height="40" as="geometry" />
        </mxCell>
        <mxCell id="UtrABaLbU96Mtq_oK4z2-3" value="&lt;font style=&quot;font-size: 9px;&quot;&gt;Дашборд&lt;/font&gt;" style="rounded=1;whiteSpace=wrap;html=1;" parent="UtrABaLbU96Mtq_oK4z2-65" vertex="1">
          <mxGeometry x="60" y="20" width="60" height="20" as="geometry" />
        </mxCell>
        <mxCell id="UtrABaLbU96Mtq_oK4z2-4" value="&lt;font style=&quot;font-size: 9px;&quot;&gt;Успеваемость&lt;/font&gt;" style="rounded=1;whiteSpace=wrap;html=1;" parent="UtrABaLbU96Mtq_oK4z2-65" vertex="1">
          <mxGeometry x="130" y="20" width="60" height="20" as="geometry" />
        </mxCell>
        <mxCell id="UtrABaLbU96Mtq_oK4z2-5" value="&lt;font style=&quot;font-size: 9px;&quot;&gt;События&lt;/font&gt;" style="rounded=1;whiteSpace=wrap;html=1;" parent="UtrABaLbU96Mtq_oK4z2-65" vertex="1">
          <mxGeometry x="200" y="20" width="60" height="20" as="geometry" />
        </mxCell>
        <mxCell id="UtrABaLbU96Mtq_oK4z2-6" value="&lt;font style=&quot;font-size: 9px;&quot;&gt;Оплата&lt;/font&gt;" style="rounded=1;whiteSpace=wrap;html=1;" parent="UtrABaLbU96Mtq_oK4z2-65" vertex="1">
          <mxGeometry x="270" y="20" width="60" height="20" as="geometry" />
        </mxCell>
        <mxCell id="UtrABaLbU96Mtq_oK4z2-7" value="" style="shape=actor;whiteSpace=wrap;html=1;" parent="UtrABaLbU96Mtq_oK4z2-65" vertex="1">
          <mxGeometry x="340" y="20" width="20" height="20" as="geometry" />
        </mxCell>
        <mxCell id="UtrABaLbU96Mtq_oK4z2-9" value="&lt;span style=&quot;font-weight: normal;&quot;&gt;&lt;font style=&quot;font-size: 9px;&quot;&gt;Средняя успеваемость&lt;/font&gt;&lt;/span&gt;" style="swimlane;whiteSpace=wrap;html=1;align=right;" parent="UtrABaLbU96Mtq_oK4z2-65" vertex="1">
          <mxGeometry x="10" y="55" width="120" height="55" as="geometry" />
        </mxCell>
        <mxCell id="UtrABaLbU96Mtq_oK4z2-10" value=" Ближайшие ивенты" style="shape=table;startSize=30;container=1;collapsible=0;childLayout=tableLayout;fixedRows=1;rowLines=0;fontStyle=0;strokeColor=default;fontSize=10;align=left;" parent="UtrABaLbU96Mtq_oK4z2-65" vertex="1">
          <mxGeometry x="260" y="120" width="100" height="80" as="geometry" />
        </mxCell>
        <mxCell id="UtrABaLbU96Mtq_oK4z2-11" value="" style="shape=tableRow;horizontal=0;startSize=0;swimlaneHead=0;swimlaneBody=0;top=0;left=0;bottom=0;right=0;collapsible=0;dropTarget=0;fillColor=none;points=[[0,0.5],[1,0.5]];portConstraint=eastwest;strokeColor=inherit;fontSize=16;" parent="UtrABaLbU96Mtq_oK4z2-10" vertex="1">
          <mxGeometry y="30" width="100" height="20" as="geometry" />
        </mxCell>
        <mxCell id="UtrABaLbU96Mtq_oK4z2-12" value="&lt;font style=&quot;font-size: 8px;&quot;&gt;1&lt;/font&gt;" style="shape=partialRectangle;html=1;whiteSpace=wrap;connectable=0;fillColor=none;top=0;left=0;bottom=0;right=0;overflow=hidden;pointerEvents=1;strokeColor=inherit;fontSize=16;" parent="UtrABaLbU96Mtq_oK4z2-11" vertex="1">
          <mxGeometry width="22" height="20" as="geometry">
            <mxRectangle width="22" height="20" as="alternateBounds" />
          </mxGeometry>
        </mxCell>
        <mxCell id="UtrABaLbU96Mtq_oK4z2-13" value="" style="shape=partialRectangle;html=1;whiteSpace=wrap;connectable=0;fillColor=none;top=0;left=0;bottom=0;right=0;align=left;spacingLeft=6;overflow=hidden;strokeColor=inherit;fontSize=16;" parent="UtrABaLbU96Mtq_oK4z2-11" vertex="1">
          <mxGeometry x="22" width="78" height="20" as="geometry">
            <mxRectangle width="78" height="20" as="alternateBounds" />
          </mxGeometry>
        </mxCell>
        <mxCell id="UtrABaLbU96Mtq_oK4z2-14" value="" style="shape=tableRow;horizontal=0;startSize=0;swimlaneHead=0;swimlaneBody=0;top=0;left=0;bottom=0;right=0;collapsible=0;dropTarget=0;fillColor=none;points=[[0,0.5],[1,0.5]];portConstraint=eastwest;strokeColor=inherit;fontSize=16;" parent="UtrABaLbU96Mtq_oK4z2-10" vertex="1">
          <mxGeometry y="50" width="100" height="30" as="geometry" />
        </mxCell>
        <mxCell id="UtrABaLbU96Mtq_oK4z2-15" value="&lt;font style=&quot;font-size: 8px;&quot;&gt;2&lt;/font&gt;" style="shape=partialRectangle;html=1;whiteSpace=wrap;connectable=0;fillColor=none;top=0;left=0;bottom=0;right=0;overflow=hidden;strokeColor=inherit;fontSize=16;" parent="UtrABaLbU96Mtq_oK4z2-14" vertex="1">
          <mxGeometry width="22" height="30" as="geometry">
            <mxRectangle width="22" height="30" as="alternateBounds" />
          </mxGeometry>
        </mxCell>
        <mxCell id="UtrABaLbU96Mtq_oK4z2-16" value="" style="shape=partialRectangle;html=1;whiteSpace=wrap;connectable=0;fillColor=none;top=0;left=0;bottom=0;right=0;align=left;spacingLeft=6;overflow=hidden;strokeColor=inherit;fontSize=16;" parent="UtrABaLbU96Mtq_oK4z2-14" vertex="1">
          <mxGeometry x="22" width="78" height="30" as="geometry">
            <mxRectangle width="78" height="30" as="alternateBounds" />
          </mxGeometry>
        </mxCell>
        <mxCell id="UtrABaLbU96Mtq_oK4z2-24" value="Расписание сегодня" style="shape=table;childLayout=tableLayout;startSize=30;collapsible=0;recursiveResize=0;expand=0;fontSize=10;" parent="UtrABaLbU96Mtq_oK4z2-65" vertex="1">
          <mxGeometry x="10" y="120" width="120" height="80" as="geometry" />
        </mxCell>
        <mxCell id="UtrABaLbU96Mtq_oK4z2-25" value="" style="shape=tableRow;horizontal=0;swimlaneHead=0;swimlaneBody=0;top=0;left=0;strokeColor=inherit;bottom=0;right=0;dropTarget=0;fontStyle=0;fillColor=none;points=[[0,0.5],[1,0.5]];portConstraint=eastwest;startSize=30;collapsible=0;recursiveResize=0;expand=0;fontSize=16;" parent="UtrABaLbU96Mtq_oK4z2-24" vertex="1">
          <mxGeometry y="30" width="120" height="22" as="geometry" />
        </mxCell>
        <mxCell id="UtrABaLbU96Mtq_oK4z2-26" value="" style="swimlane;swimlaneHead=0;swimlaneBody=0;fontStyle=0;strokeColor=inherit;connectable=0;fillColor=none;startSize=40;collapsible=0;recursiveResize=0;expand=0;fontSize=16;" parent="UtrABaLbU96Mtq_oK4z2-25" vertex="1">
          <mxGeometry x="30" width="36" height="22" as="geometry">
            <mxRectangle width="36" height="22" as="alternateBounds" />
          </mxGeometry>
        </mxCell>
        <mxCell id="UtrABaLbU96Mtq_oK4z2-27" value="" style="swimlane;swimlaneHead=0;swimlaneBody=0;fontStyle=0;strokeColor=inherit;connectable=0;fillColor=none;startSize=40;collapsible=0;recursiveResize=0;expand=0;fontSize=16;" parent="UtrABaLbU96Mtq_oK4z2-25" vertex="1">
          <mxGeometry x="66" width="27" height="22" as="geometry">
            <mxRectangle width="27" height="22" as="alternateBounds" />
          </mxGeometry>
        </mxCell>
        <mxCell id="UtrABaLbU96Mtq_oK4z2-28" value="" style="swimlane;swimlaneHead=0;swimlaneBody=0;fontStyle=0;strokeColor=inherit;connectable=0;fillColor=none;startSize=40;collapsible=0;recursiveResize=0;expand=0;fontSize=16;" parent="UtrABaLbU96Mtq_oK4z2-25" vertex="1">
          <mxGeometry x="93" width="27" height="22" as="geometry">
            <mxRectangle width="27" height="22" as="alternateBounds" />
          </mxGeometry>
        </mxCell>
        <mxCell id="UtrABaLbU96Mtq_oK4z2-29" value="" style="shape=tableRow;horizontal=0;swimlaneHead=0;swimlaneBody=0;top=0;left=0;strokeColor=inherit;bottom=0;right=0;dropTarget=0;fontStyle=0;fillColor=none;points=[[0,0.5],[1,0.5]];portConstraint=eastwest;startSize=30;collapsible=0;recursiveResize=0;expand=0;fontSize=16;" parent="UtrABaLbU96Mtq_oK4z2-24" vertex="1">
          <mxGeometry y="52" width="120" height="15" as="geometry" />
        </mxCell>
        <mxCell id="UtrABaLbU96Mtq_oK4z2-30" value="" style="swimlane;swimlaneHead=0;swimlaneBody=0;fontStyle=0;connectable=0;strokeColor=inherit;fillColor=none;startSize=0;collapsible=0;recursiveResize=0;expand=0;fontSize=16;" parent="UtrABaLbU96Mtq_oK4z2-29" vertex="1">
          <mxGeometry x="30" width="36" height="15" as="geometry">
            <mxRectangle width="36" height="15" as="alternateBounds" />
          </mxGeometry>
        </mxCell>
        <mxCell id="UtrABaLbU96Mtq_oK4z2-31" value="" style="swimlane;swimlaneHead=0;swimlaneBody=0;fontStyle=0;connectable=0;strokeColor=inherit;fillColor=none;startSize=0;collapsible=0;recursiveResize=0;expand=0;fontSize=16;" parent="UtrABaLbU96Mtq_oK4z2-29" vertex="1">
          <mxGeometry x="66" width="27" height="15" as="geometry">
            <mxRectangle width="27" height="15" as="alternateBounds" />
          </mxGeometry>
        </mxCell>
        <mxCell id="UtrABaLbU96Mtq_oK4z2-32" value="" style="swimlane;swimlaneHead=0;swimlaneBody=0;fontStyle=0;connectable=0;strokeColor=inherit;fillColor=none;startSize=0;collapsible=0;recursiveResize=0;expand=0;fontSize=16;" parent="UtrABaLbU96Mtq_oK4z2-29" vertex="1">
          <mxGeometry x="93" width="27" height="15" as="geometry">
            <mxRectangle width="27" height="15" as="alternateBounds" />
          </mxGeometry>
        </mxCell>
        <mxCell id="UtrABaLbU96Mtq_oK4z2-33" value="" style="shape=tableRow;horizontal=0;swimlaneHead=0;swimlaneBody=0;top=0;left=0;strokeColor=inherit;bottom=0;right=0;dropTarget=0;fontStyle=0;fillColor=none;points=[[0,0.5],[1,0.5]];portConstraint=eastwest;startSize=30;collapsible=0;recursiveResize=0;expand=0;fontSize=16;" parent="UtrABaLbU96Mtq_oK4z2-24" vertex="1">
          <mxGeometry y="67" width="120" height="13" as="geometry" />
        </mxCell>
        <mxCell id="UtrABaLbU96Mtq_oK4z2-34" value="" style="swimlane;swimlaneHead=0;swimlaneBody=0;fontStyle=0;connectable=0;strokeColor=inherit;fillColor=none;startSize=0;collapsible=0;recursiveResize=0;expand=0;fontSize=16;" parent="UtrABaLbU96Mtq_oK4z2-33" vertex="1">
          <mxGeometry x="30" width="36" height="13" as="geometry">
            <mxRectangle width="36" height="13" as="alternateBounds" />
          </mxGeometry>
        </mxCell>
        <mxCell id="UtrABaLbU96Mtq_oK4z2-35" value="" style="swimlane;swimlaneHead=0;swimlaneBody=0;fontStyle=0;connectable=0;strokeColor=inherit;fillColor=none;startSize=0;collapsible=0;recursiveResize=0;expand=0;fontSize=16;" parent="UtrABaLbU96Mtq_oK4z2-33" vertex="1">
          <mxGeometry x="66" width="27" height="13" as="geometry">
            <mxRectangle width="27" height="13" as="alternateBounds" />
          </mxGeometry>
        </mxCell>
        <mxCell id="UtrABaLbU96Mtq_oK4z2-36" value="" style="swimlane;swimlaneHead=0;swimlaneBody=0;fontStyle=0;connectable=0;strokeColor=inherit;fillColor=none;startSize=0;collapsible=0;recursiveResize=0;expand=0;fontSize=16;" parent="UtrABaLbU96Mtq_oK4z2-33" vertex="1">
          <mxGeometry x="93" width="27" height="13" as="geometry">
            <mxRectangle width="27" height="13" as="alternateBounds" />
          </mxGeometry>
        </mxCell>
        <mxCell id="UtrABaLbU96Mtq_oK4z2-37" value="" style="childLayout=tableLayout;recursiveResize=0;shadow=0;fillColor=none;" parent="UtrABaLbU96Mtq_oK4z2-65" vertex="1">
          <mxGeometry x="140" y="120" width="110" height="80" as="geometry" />
        </mxCell>
        <mxCell id="UtrABaLbU96Mtq_oK4z2-38" value="" style="shape=tableRow;horizontal=0;startSize=0;swimlaneHead=0;swimlaneBody=0;top=0;left=0;bottom=0;right=0;dropTarget=0;collapsible=0;recursiveResize=0;expand=0;fontStyle=0;fillColor=none;strokeColor=inherit;" parent="UtrABaLbU96Mtq_oK4z2-37" vertex="1">
          <mxGeometry width="110" height="27" as="geometry" />
        </mxCell>
        <mxCell id="UtrABaLbU96Mtq_oK4z2-39" value="&lt;font style=&quot;font-size: 7px;&quot;&gt;Тест&lt;/font&gt;" style="connectable=0;recursiveResize=0;strokeColor=inherit;fillColor=none;align=center;whiteSpace=wrap;html=1;" parent="UtrABaLbU96Mtq_oK4z2-38" vertex="1">
          <mxGeometry width="36" height="27" as="geometry">
            <mxRectangle width="36" height="27" as="alternateBounds" />
          </mxGeometry>
        </mxCell>
        <mxCell id="UtrABaLbU96Mtq_oK4z2-40" value="" style="connectable=0;recursiveResize=0;strokeColor=inherit;fillColor=none;align=center;whiteSpace=wrap;html=1;" parent="UtrABaLbU96Mtq_oK4z2-38" vertex="1">
          <mxGeometry x="36" width="38" height="27" as="geometry">
            <mxRectangle width="38" height="27" as="alternateBounds" />
          </mxGeometry>
        </mxCell>
        <mxCell id="UtrABaLbU96Mtq_oK4z2-41" value="" style="connectable=0;recursiveResize=0;strokeColor=inherit;fillColor=none;align=center;whiteSpace=wrap;html=1;" parent="UtrABaLbU96Mtq_oK4z2-38" vertex="1">
          <mxGeometry x="74" width="36" height="27" as="geometry">
            <mxRectangle width="36" height="27" as="alternateBounds" />
          </mxGeometry>
        </mxCell>
        <mxCell id="UtrABaLbU96Mtq_oK4z2-42" style="shape=tableRow;horizontal=0;startSize=0;swimlaneHead=0;swimlaneBody=0;top=0;left=0;bottom=0;right=0;dropTarget=0;collapsible=0;recursiveResize=0;expand=0;fontStyle=0;fillColor=none;strokeColor=inherit;" parent="UtrABaLbU96Mtq_oK4z2-37" vertex="1">
          <mxGeometry y="27" width="110" height="26" as="geometry" />
        </mxCell>
        <mxCell id="UtrABaLbU96Mtq_oK4z2-43" value="" style="connectable=0;recursiveResize=0;strokeColor=inherit;fillColor=none;align=center;whiteSpace=wrap;html=1;" parent="UtrABaLbU96Mtq_oK4z2-42" vertex="1">
          <mxGeometry width="36" height="26" as="geometry">
            <mxRectangle width="36" height="26" as="alternateBounds" />
          </mxGeometry>
        </mxCell>
        <mxCell id="UtrABaLbU96Mtq_oK4z2-44" value="&lt;font style=&quot;font-size: 7px;&quot;&gt;Контроль&lt;/font&gt;" style="connectable=0;recursiveResize=0;strokeColor=inherit;fillColor=none;align=center;whiteSpace=wrap;html=1;" parent="UtrABaLbU96Mtq_oK4z2-42" vertex="1">
          <mxGeometry x="36" width="38" height="26" as="geometry">
            <mxRectangle width="38" height="26" as="alternateBounds" />
          </mxGeometry>
        </mxCell>
        <mxCell id="UtrABaLbU96Mtq_oK4z2-45" value="" style="connectable=0;recursiveResize=0;strokeColor=inherit;fillColor=none;align=center;whiteSpace=wrap;html=1;" parent="UtrABaLbU96Mtq_oK4z2-42" vertex="1">
          <mxGeometry x="74" width="36" height="26" as="geometry">
            <mxRectangle width="36" height="26" as="alternateBounds" />
          </mxGeometry>
        </mxCell>
        <mxCell id="UtrABaLbU96Mtq_oK4z2-46" style="shape=tableRow;horizontal=0;startSize=0;swimlaneHead=0;swimlaneBody=0;top=0;left=0;bottom=0;right=0;dropTarget=0;collapsible=0;recursiveResize=0;expand=0;fontStyle=0;fillColor=none;strokeColor=inherit;" parent="UtrABaLbU96Mtq_oK4z2-37" vertex="1">
          <mxGeometry y="53" width="110" height="27" as="geometry" />
        </mxCell>
        <mxCell id="UtrABaLbU96Mtq_oK4z2-47" value="" style="connectable=0;recursiveResize=0;strokeColor=inherit;fillColor=none;align=center;whiteSpace=wrap;html=1;" parent="UtrABaLbU96Mtq_oK4z2-46" vertex="1">
          <mxGeometry width="36" height="27" as="geometry">
            <mxRectangle width="36" height="27" as="alternateBounds" />
          </mxGeometry>
        </mxCell>
        <mxCell id="UtrABaLbU96Mtq_oK4z2-48" value="&lt;font style=&quot;font-size: 7px;&quot;&gt;Экзамен&lt;/font&gt;" style="connectable=0;recursiveResize=0;strokeColor=inherit;fillColor=none;align=center;whiteSpace=wrap;html=1;" parent="UtrABaLbU96Mtq_oK4z2-46" vertex="1">
          <mxGeometry x="36" width="38" height="27" as="geometry">
            <mxRectangle width="38" height="27" as="alternateBounds" />
          </mxGeometry>
        </mxCell>
        <mxCell id="UtrABaLbU96Mtq_oK4z2-49" value="" style="connectable=0;recursiveResize=0;strokeColor=inherit;fillColor=none;align=center;whiteSpace=wrap;html=1;" parent="UtrABaLbU96Mtq_oK4z2-46" vertex="1">
          <mxGeometry x="74" width="36" height="27" as="geometry">
            <mxRectangle width="36" height="27" as="alternateBounds" />
          </mxGeometry>
        </mxCell>
        <mxCell id="UtrABaLbU96Mtq_oK4z2-50" value="Контакты кураторов" style="swimlane;fontStyle=0;fontSize=8;align=right;" parent="UtrABaLbU96Mtq_oK4z2-65" vertex="1">
          <mxGeometry x="260" y="55" width="100" height="55" as="geometry" />
        </mxCell>
        <mxCell id="UtrABaLbU96Mtq_oK4z2-51" value="&lt;font style=&quot;font-size: 8px;&quot;&gt;Мои задачи&lt;/font&gt;" style="swimlane;fontStyle=0;childLayout=stackLayout;horizontal=1;startSize=30;horizontalStack=0;resizeParent=1;resizeParentMax=0;resizeLast=0;collapsible=1;marginBottom=0;whiteSpace=wrap;html=1;strokeColor=#ff0000;" parent="UtrABaLbU96Mtq_oK4z2-65" vertex="1">
          <mxGeometry x="140" y="55" width="110" height="50" as="geometry" />
        </mxCell>
        <mxCell id="UtrABaLbU96Mtq_oK4z2-52" value="&lt;font style=&quot;font-size: 7px;&quot;&gt;Дисциплина + задача кратко&lt;/font&gt;" style="text;strokeColor=none;fillColor=none;align=left;verticalAlign=middle;spacingLeft=4;spacingRight=4;overflow=hidden;points=[[0,0.5],[1,0.5]];portConstraint=eastwest;rotatable=0;whiteSpace=wrap;html=1;" parent="UtrABaLbU96Mtq_oK4z2-51" vertex="1">
          <mxGeometry y="30" width="110" height="20" as="geometry" />
        </mxCell>
        <mxCell id="UtrABaLbU96Mtq_oK4z2-67" value="" style="endArrow=none;dashed=1;html=1;rounded=0;entryX=1;entryY=0.25;entryDx=0;entryDy=0;" parent="UtrABaLbU96Mtq_oK4z2-65" target="UtrABaLbU96Mtq_oK4z2-1" edge="1">
          <mxGeometry width="50" height="50" relative="1" as="geometry">
            <mxPoint x="0.37" y="51.77" as="sourcePoint" />
            <mxPoint x="370" y="55.00000000000002" as="targetPoint" />
          </mxGeometry>
        </mxCell>
        <mxCell id="UtrABaLbU96Mtq_oK4z2-66" value="&lt;font style=&quot;font-size: 9px;&quot;&gt;&lt;br&gt;Как пользователь образовательного портала, я хочу видеть список своих текущих задач к выполнению на главном экране веб-сайта, чтобы быстро ориентироваться в своих обязательствах и эффективно планировать учебное время.&lt;/font&gt;" style="text;whiteSpace=wrap;html=1;" parent="1" vertex="1">
          <mxGeometry x="70" y="10" width="380" height="40" as="geometry" />
        </mxCell>
        <mxCell id="UtrABaLbU96Mtq_oK4z2-69" value="" style="rounded=0;whiteSpace=wrap;html=1;" parent="1" vertex="1">
          <mxGeometry x="520" y="80" width="370" height="210" as="geometry" />
        </mxCell>
        <mxCell id="UtrABaLbU96Mtq_oK4z2-70" value="&lt;div style=&quot;&quot;&gt;&lt;span style=&quot;font-size: 7px; background-color: initial;&quot;&gt;на главную&lt;/span&gt;&lt;/div&gt;" style="shape=singleArrow;direction=west;whiteSpace=wrap;html=1;align=center;arrowWidth=0.6428571428571374;arrowSize=0.18571428571428408;" parent="1" vertex="1">
          <mxGeometry x="530" y="90" width="50" height="20" as="geometry" />
        </mxCell>
        <mxCell id="UtrABaLbU96Mtq_oK4z2-84" value="Мои задачи" style="shape=table;startSize=30;container=1;collapsible=1;childLayout=tableLayout;fixedRows=1;rowLines=0;fontStyle=1;align=center;resizeLast=1;html=1;whiteSpace=wrap;" parent="1" vertex="1">
          <mxGeometry x="590" y="90" width="290" height="150" as="geometry" />
        </mxCell>
        <mxCell id="UtrABaLbU96Mtq_oK4z2-85" value="" style="shape=tableRow;horizontal=0;startSize=0;swimlaneHead=0;swimlaneBody=0;fillColor=none;collapsible=0;dropTarget=0;points=[[0,0.5],[1,0.5]];portConstraint=eastwest;top=0;left=0;right=0;bottom=0;html=1;" parent="UtrABaLbU96Mtq_oK4z2-84" vertex="1">
          <mxGeometry y="30" width="290" height="30" as="geometry" />
        </mxCell>
        <mxCell id="UtrABaLbU96Mtq_oK4z2-86" value="&lt;font style=&quot;font-size: 8px;&quot;&gt;Дисциплина 1&lt;/font&gt;" style="shape=partialRectangle;connectable=0;fillColor=none;top=0;left=0;bottom=0;right=0;fontStyle=1;overflow=hidden;html=1;whiteSpace=wrap;align=center;" parent="UtrABaLbU96Mtq_oK4z2-85" vertex="1">
          <mxGeometry width="60" height="30" as="geometry">
            <mxRectangle width="60" height="30" as="alternateBounds" />
          </mxGeometry>
        </mxCell>
        <mxCell id="UtrABaLbU96Mtq_oK4z2-87" value="Подготовка к контрольной" style="shape=partialRectangle;connectable=0;fillColor=none;top=0;left=0;bottom=0;right=0;align=left;spacingLeft=6;fontStyle=5;overflow=hidden;html=1;whiteSpace=wrap;" parent="UtrABaLbU96Mtq_oK4z2-85" vertex="1">
          <mxGeometry x="60" width="230" height="30" as="geometry">
            <mxRectangle width="230" height="30" as="alternateBounds" />
          </mxGeometry>
        </mxCell>
        <mxCell id="UtrABaLbU96Mtq_oK4z2-88" value="" style="shape=tableRow;horizontal=0;startSize=0;swimlaneHead=0;swimlaneBody=0;fillColor=none;collapsible=0;dropTarget=0;points=[[0,0.5],[1,0.5]];portConstraint=eastwest;top=0;left=0;right=0;bottom=1;html=1;" parent="UtrABaLbU96Mtq_oK4z2-84" vertex="1">
          <mxGeometry y="60" width="290" height="30" as="geometry" />
        </mxCell>
        <mxCell id="UtrABaLbU96Mtq_oK4z2-89" value="" style="shape=partialRectangle;connectable=0;fillColor=none;top=0;left=0;bottom=0;right=0;fontStyle=1;overflow=hidden;html=1;whiteSpace=wrap;" parent="UtrABaLbU96Mtq_oK4z2-88" vertex="1">
          <mxGeometry width="60" height="30" as="geometry">
            <mxRectangle width="60" height="30" as="alternateBounds" />
          </mxGeometry>
        </mxCell>
        <mxCell id="UtrABaLbU96Mtq_oK4z2-90" value="Подготовка к семинару" style="shape=partialRectangle;connectable=0;fillColor=none;top=0;left=0;bottom=0;right=0;align=left;spacingLeft=6;fontStyle=5;overflow=hidden;html=1;whiteSpace=wrap;" parent="UtrABaLbU96Mtq_oK4z2-88" vertex="1">
          <mxGeometry x="60" width="230" height="30" as="geometry">
            <mxRectangle width="230" height="30" as="alternateBounds" />
          </mxGeometry>
        </mxCell>
        <mxCell id="UtrABaLbU96Mtq_oK4z2-91" value="" style="shape=tableRow;horizontal=0;startSize=0;swimlaneHead=0;swimlaneBody=0;fillColor=none;collapsible=0;dropTarget=0;points=[[0,0.5],[1,0.5]];portConstraint=eastwest;top=0;left=0;right=0;bottom=0;html=1;" parent="UtrABaLbU96Mtq_oK4z2-84" vertex="1">
          <mxGeometry y="90" width="290" height="30" as="geometry" />
        </mxCell>
        <mxCell id="UtrABaLbU96Mtq_oK4z2-92" value="" style="shape=partialRectangle;connectable=0;fillColor=none;top=0;left=0;bottom=0;right=0;editable=1;overflow=hidden;html=1;whiteSpace=wrap;" parent="UtrABaLbU96Mtq_oK4z2-91" vertex="1">
          <mxGeometry width="60" height="30" as="geometry">
            <mxRectangle width="60" height="30" as="alternateBounds" />
          </mxGeometry>
        </mxCell>
        <mxCell id="UtrABaLbU96Mtq_oK4z2-93" value="" style="shape=partialRectangle;connectable=0;fillColor=none;top=0;left=0;bottom=0;right=0;align=left;spacingLeft=6;overflow=hidden;html=1;whiteSpace=wrap;" parent="UtrABaLbU96Mtq_oK4z2-91" vertex="1">
          <mxGeometry x="60" width="230" height="30" as="geometry">
            <mxRectangle width="230" height="30" as="alternateBounds" />
          </mxGeometry>
        </mxCell>
        <mxCell id="UtrABaLbU96Mtq_oK4z2-94" value="" style="shape=tableRow;horizontal=0;startSize=0;swimlaneHead=0;swimlaneBody=0;fillColor=none;collapsible=0;dropTarget=0;points=[[0,0.5],[1,0.5]];portConstraint=eastwest;top=0;left=0;right=0;bottom=0;html=1;" parent="UtrABaLbU96Mtq_oK4z2-84" vertex="1">
          <mxGeometry y="120" width="290" height="30" as="geometry" />
        </mxCell>
        <mxCell id="UtrABaLbU96Mtq_oK4z2-95" value="" style="shape=partialRectangle;connectable=0;fillColor=none;top=0;left=0;bottom=0;right=0;editable=1;overflow=hidden;html=1;whiteSpace=wrap;" parent="UtrABaLbU96Mtq_oK4z2-94" vertex="1">
          <mxGeometry width="60" height="30" as="geometry">
            <mxRectangle width="60" height="30" as="alternateBounds" />
          </mxGeometry>
        </mxCell>
        <mxCell id="UtrABaLbU96Mtq_oK4z2-96" value="" style="shape=partialRectangle;connectable=0;fillColor=none;top=0;left=0;bottom=0;right=0;align=left;spacingLeft=6;overflow=hidden;html=1;whiteSpace=wrap;" parent="UtrABaLbU96Mtq_oK4z2-94" vertex="1">
          <mxGeometry x="60" width="230" height="30" as="geometry">
            <mxRectangle width="230" height="30" as="alternateBounds" />
          </mxGeometry>
        </mxCell>
        <mxCell id="UtrABaLbU96Mtq_oK4z2-97" value="&lt;font style=&quot;font-size: 8px;&quot;&gt;Дисциплина 2&lt;/font&gt;" style="shape=partialRectangle;connectable=0;fillColor=none;top=0;left=0;bottom=0;right=0;fontStyle=1;overflow=hidden;html=1;whiteSpace=wrap;align=center;" parent="1" vertex="1">
          <mxGeometry x="590" y="170" width="60" height="50" as="geometry">
            <mxRectangle width="60" height="30" as="alternateBounds" />
          </mxGeometry>
        </mxCell>
        <mxCell id="UtrABaLbU96Mtq_oK4z2-98" value="Защита группового проекта" style="shape=partialRectangle;connectable=0;fillColor=none;top=0;left=0;bottom=0;right=0;align=left;spacingLeft=6;fontStyle=5;overflow=hidden;html=1;whiteSpace=wrap;" parent="1" vertex="1">
          <mxGeometry x="650" y="180" width="230" height="30" as="geometry">
            <mxRectangle width="230" height="30" as="alternateBounds" />
          </mxGeometry>
        </mxCell>
        <mxCell id="NzfTSA1hqwJ1rz7dSjbP-7" style="edgeStyle=orthogonalEdgeStyle;rounded=0;orthogonalLoop=1;jettySize=auto;html=1;" edge="1" parent="1" source="UtrABaLbU96Mtq_oK4z2-100" target="UtrABaLbU96Mtq_oK4z2-117">
          <mxGeometry relative="1" as="geometry" />
        </mxCell>
        <mxCell id="UtrABaLbU96Mtq_oK4z2-100" value="&lt;font style=&quot;font-size: 6px;&quot;&gt;Детализировать&lt;/font&gt;" style="shape=ext;margin=3;double=1;whiteSpace=wrap;html=1;align=center;strokeColor=#f20202;" parent="1" vertex="1">
          <mxGeometry x="810" y="155" width="60" height="20" as="geometry" />
        </mxCell>
        <mxCell id="UtrABaLbU96Mtq_oK4z2-104" value="" style="endArrow=classic;html=1;rounded=0;exitX=0;exitY=0;exitDx=40.71428571428579;exitDy=0;exitPerimeter=0;" parent="1" source="UtrABaLbU96Mtq_oK4z2-70" edge="1">
          <mxGeometry width="50" height="50" relative="1" as="geometry">
            <mxPoint x="520" y="110" as="sourcePoint" />
            <mxPoint x="440" y="110" as="targetPoint" />
          </mxGeometry>
        </mxCell>
        <mxCell id="UtrABaLbU96Mtq_oK4z2-105" value="&lt;font style=&quot;font-size: 8px;&quot;&gt;Возвращает на главную страницу&lt;/font&gt;" style="text;html=1;align=center;verticalAlign=middle;resizable=0;points=[];autosize=1;strokeColor=none;fillColor=none;" parent="1" vertex="1">
          <mxGeometry x="440" y="100" width="150" height="30" as="geometry" />
        </mxCell>
        <mxCell id="UtrABaLbU96Mtq_oK4z2-106" style="edgeStyle=orthogonalEdgeStyle;rounded=0;orthogonalLoop=1;jettySize=auto;html=1;" parent="1" source="UtrABaLbU96Mtq_oK4z2-52" edge="1">
          <mxGeometry relative="1" as="geometry">
            <mxPoint x="590" y="250" as="targetPoint" />
            <Array as="points">
              <mxPoint x="550" y="175" />
              <mxPoint x="550" y="250" />
            </Array>
          </mxGeometry>
        </mxCell>
        <mxCell id="UtrABaLbU96Mtq_oK4z2-107" value="&lt;font style=&quot;font-size: 8px;&quot;&gt;клик по дисциплине - переход в карточку дисциплины с заданиями&lt;/font&gt;" style="edgeLabel;html=1;align=center;verticalAlign=top;resizable=0;points=[];fontSize=8;rotation=0;spacingRight=0;spacing=0;horizontal=1;" parent="UtrABaLbU96Mtq_oK4z2-106" vertex="1" connectable="0">
          <mxGeometry x="0.3408" y="1" relative="1" as="geometry">
            <mxPoint x="168" y="64" as="offset" />
          </mxGeometry>
        </mxCell>
        <mxCell id="UtrABaLbU96Mtq_oK4z2-112" value="" style="verticalLabelPosition=bottom;verticalAlign=top;html=1;shape=mxgraph.basic.tick;fillColor=#009900;" parent="1" vertex="1">
          <mxGeometry x="607.5" y="205" width="25" height="25" as="geometry" />
        </mxCell>
        <mxCell id="UtrABaLbU96Mtq_oK4z2-113" value="" style="verticalLabelPosition=bottom;verticalAlign=top;html=1;shape=mxgraph.basic.x;fillColor=#FF3333;fillStyle=solid;" parent="1" vertex="1">
          <mxGeometry x="607.5" y="150" width="25" height="20" as="geometry" />
        </mxCell>
        <mxCell id="UtrABaLbU96Mtq_oK4z2-139" style="edgeStyle=orthogonalEdgeStyle;rounded=0;orthogonalLoop=1;jettySize=auto;html=1;exitX=0.5;exitY=1;exitDx=0;exitDy=0;entryX=0.5;entryY=0;entryDx=0;entryDy=0;" parent="1" source="UtrABaLbU96Mtq_oK4z2-114" target="UtrABaLbU96Mtq_oK4z2-115" edge="1">
          <mxGeometry relative="1" as="geometry" />
        </mxCell>
        <mxCell id="UtrABaLbU96Mtq_oK4z2-114" value="&lt;font style=&quot;font-size: 11px;&quot;&gt;Добавить задачу&lt;/font&gt;" style="rounded=1;whiteSpace=wrap;html=1;" parent="1" vertex="1">
          <mxGeometry x="660" y="260" width="140" height="20" as="geometry" />
        </mxCell>
        <mxCell id="UtrABaLbU96Mtq_oK4z2-115" value="" style="rounded=0;whiteSpace=wrap;html=1;" parent="1" vertex="1">
          <mxGeometry x="520" y="330" width="370" height="90" as="geometry" />
        </mxCell>
        <mxCell id="NzfTSA1hqwJ1rz7dSjbP-1" value="" style="edgeStyle=orthogonalEdgeStyle;rounded=0;orthogonalLoop=1;jettySize=auto;html=1;" edge="1" parent="1" source="UtrABaLbU96Mtq_oK4z2-117" target="UtrABaLbU96Mtq_oK4z2-115">
          <mxGeometry relative="1" as="geometry">
            <Array as="points">
              <mxPoint x="910" y="475" />
              <mxPoint x="910" y="375" />
            </Array>
          </mxGeometry>
        </mxCell>
        <mxCell id="UtrABaLbU96Mtq_oK4z2-117" value="&lt;h1 style=&quot;margin-top: 0px; font-size: 9px;&quot;&gt;&lt;font style=&quot;font-size: 9px;&quot;&gt;Меню детализации&lt;/font&gt;&lt;/h1&gt;&lt;p style=&quot;font-size: 9px;&quot;&gt;&lt;font style=&quot;font-size: 9px;&quot;&gt;Меню позволяет разбить задачу на подзадачи, сделать mindmap, собрать самостоятельно полезные материалы или ознакомиться с материалами, рекомендованными преподавателем, можно имплементировать трелло на минималках для одногруппников, с которыми делаешь задачу&lt;/font&gt;&lt;/p&gt;" style="text;html=1;whiteSpace=wrap;overflow=hidden;rounded=0;" parent="1" vertex="1">
          <mxGeometry x="920" y="400" width="170" height="150" as="geometry" />
        </mxCell>
        <mxCell id="UtrABaLbU96Mtq_oK4z2-134" value="&lt;font style=&quot;font-size: 7px;&quot;&gt;Добавить элемент&lt;/font&gt;" style="labelPosition=center;verticalLabelPosition=middle;align=center;html=1;shape=mxgraph.basic.button;dx=5.1;whiteSpace=wrap;" parent="1" vertex="1">
          <mxGeometry x="810" y="335" width="72.5" height="30" as="geometry" />
        </mxCell>
        <UserObject label="&lt;u&gt;Подготовка к семинару&lt;/u&gt;" placeholders="1" name="Variable" id="UtrABaLbU96Mtq_oK4z2-142">
          <mxCell style="text;html=1;strokeColor=none;fillColor=none;align=center;verticalAlign=middle;whiteSpace=wrap;overflow=hidden;" parent="1" vertex="1">
            <mxGeometry x="592.5" y="340" width="230" height="20" as="geometry" />
          </mxCell>
        </UserObject>
        <UserObject label="&lt;div style=&quot;text-align: justify;&quot;&gt;&lt;span style=&quot;background-color: initial;&quot;&gt;&lt;font style=&quot;font-size: 9px;&quot;&gt;Можем зайти в конфигуратор задачи и создать свою собственную, если задача не создана из паттерна преподавателя&lt;/font&gt;&lt;/span&gt;&lt;/div&gt;" placeholders="1" name="Variable" id="UtrABaLbU96Mtq_oK4z2-143">
          <mxCell style="text;html=1;strokeColor=none;fillColor=none;align=left;verticalAlign=middle;whiteSpace=wrap;overflow=hidden;" parent="1" vertex="1">
            <mxGeometry x="735" y="270" width="250" height="80" as="geometry" />
          </mxCell>
        </UserObject>
        <mxCell id="NzfTSA1hqwJ1rz7dSjbP-2" value="&lt;ol style=&quot;font-size: 10px;&quot;&gt;&lt;li&gt;Повторить материалы лекции&lt;/li&gt;&lt;li&gt;Решить задачи 1-5&lt;/li&gt;&lt;li&gt;Составить вопросы про теме&lt;/li&gt;&lt;/ol&gt;" style="text;strokeColor=none;fillColor=none;html=1;whiteSpace=wrap;verticalAlign=middle;overflow=hidden;" vertex="1" parent="1">
          <mxGeometry x="575" y="350" width="235" height="90" as="geometry" />
        </mxCell>
        <mxCell id="NzfTSA1hqwJ1rz7dSjbP-3" value="" style="verticalLabelPosition=bottom;verticalAlign=top;html=1;shape=mxgraph.basic.x;fillColor=#FF3333;fillStyle=solid;" vertex="1" parent="1">
          <mxGeometry x="590" y="400" width="12.5" height="10" as="geometry" />
        </mxCell>
        <mxCell id="NzfTSA1hqwJ1rz7dSjbP-4" value="" style="verticalLabelPosition=bottom;verticalAlign=top;html=1;shape=mxgraph.basic.x;fillColor=#FF3333;fillStyle=solid;" vertex="1" parent="1">
          <mxGeometry x="590" y="390" width="12.5" height="10" as="geometry" />
        </mxCell>
        <mxCell id="NzfTSA1hqwJ1rz7dSjbP-6" value="" style="verticalLabelPosition=bottom;verticalAlign=top;html=1;shape=mxgraph.basic.tick;fillColor=#009900;" vertex="1" parent="1">
          <mxGeometry x="592.5" y="380" width="10" height="10" as="geometry" />
        </mxCell>
        <mxCell id="NzfTSA1hqwJ1rz7dSjbP-8" value="&lt;font style=&quot;font-size: 9px;&quot;&gt;Когда все тудушки по задаче закрыты - она автоматически переводится в статус выполненной&lt;/font&gt;" style="text;html=1;whiteSpace=wrap;overflow=hidden;rounded=0;" vertex="1" parent="1">
          <mxGeometry x="506.25" y="450" width="180" height="50" as="geometry" />
        </mxCell>
        <mxCell id="NzfTSA1hqwJ1rz7dSjbP-9" style="edgeStyle=orthogonalEdgeStyle;rounded=0;orthogonalLoop=1;jettySize=auto;html=1;entryX=0.5;entryY=0.71;entryDx=0;entryDy=0;entryPerimeter=0;" edge="1" parent="1" source="NzfTSA1hqwJ1rz7dSjbP-8" target="NzfTSA1hqwJ1rz7dSjbP-3">
          <mxGeometry relative="1" as="geometry" />
        </mxCell>
        <mxCell id="NzfTSA1hqwJ1rz7dSjbP-12" value="" style="shape=cross;whiteSpace=wrap;html=1;fillStyle=solid;fillColor=#009900;" vertex="1" parent="1">
          <mxGeometry x="666.25" y="265" width="13.75" height="10" as="geometry" />
        </mxCell>
        <mxCell id="NzfTSA1hqwJ1rz7dSjbP-13" value="&lt;font style=&quot;font-size: 9px;&quot;&gt;#Д1&lt;/font&gt;" style="rounded=1;whiteSpace=wrap;html=1;fillColor=#ffe6cc;strokeColor=#d79b00;" vertex="1" parent="1">
          <mxGeometry x="832.5" y="130" width="40" height="12" as="geometry" />
        </mxCell>
        <mxCell id="NzfTSA1hqwJ1rz7dSjbP-14" value="&lt;font style=&quot;font-size: 6px;&quot;&gt;Детализировать&lt;/font&gt;" style="shape=ext;margin=3;double=1;whiteSpace=wrap;html=1;align=center;strokeColor=#000000;" vertex="1" parent="1">
          <mxGeometry x="810" y="210" width="62.5" height="20" as="geometry" />
        </mxCell>
        <mxCell id="NzfTSA1hqwJ1rz7dSjbP-15" value="&lt;font style=&quot;font-size: 9px;&quot;&gt;#Д2&lt;/font&gt;" style="rounded=1;whiteSpace=wrap;html=1;fillColor=#e1d5e7;strokeColor=#9673a6;" vertex="1" parent="1">
          <mxGeometry x="832.5" y="189" width="40" height="12" as="geometry" />
        </mxCell>
        <mxCell id="NzfTSA1hqwJ1rz7dSjbP-17" style="edgeStyle=orthogonalEdgeStyle;rounded=0;orthogonalLoop=1;jettySize=auto;html=1;" edge="1" parent="1" source="NzfTSA1hqwJ1rz7dSjbP-16">
          <mxGeometry relative="1" as="geometry">
            <mxPoint x="930" y="105" as="targetPoint" />
          </mxGeometry>
        </mxCell>
        <mxCell id="NzfTSA1hqwJ1rz7dSjbP-16" value="" style="shape=image;verticalLabelPosition=bottom;labelBackgroundColor=default;verticalAlign=top;aspect=fixed;imageAspect=0;image=data:image/png,iVBORw0KGgoAAAANSUhEUgAAAGQAAABkCAYAAABw4pVUAAAAAXNSR0IArs4c6QAAAERlWElmTU0AKgAAAAgAAYdpAAQAAAABAAAAGgAAAAAAA6ABAAMAAAABAAEAAKACAAQAAAABAAAAZKADAAQAAAABAAAAZAAAAAAvu95BAAAFrElEQVR4Ae2da6gVVRTHzVdWvur2MEwRyh5EDyLKwuhDBkUfUkT8EjdKgoggpA8VkX6oDxVECFEGUiA9iIgQCYywkFQsoxdEjwu9JDTl9qCMHmr+lnJhs9hnZs6c2TNr7qwNi3v2mr1e///Z+8zMPmfuhAneHAFHwBFwBByB6hFYjstR5H+XSjHYA543I9F2QlR7XLmXP3Myjvuh8ggIKfNj5lmEyMzwlg6BKPYT08Vzz2UQmNyHUZTRPuy7PrTQiuMzxNjbxAlpMSFLjOXepnQqwe5HKg6vQf6gf02bUDCSq2Am2IVY7iuT260YHVKOfqV/WRlnHbURrASzkIz/6C8ri8cwhoeVw/30LyrrsEN2C6lVLq5DMo7QXzUoBvcqpxJArjQXIN7iCMxD/T0SkiGvVyOVtLV40c5H0J1diffx5eRMyvkS0Xg9VHWZT0aCfI5uqOpALfY3m9w/RjQZT6eoSa7Un48E+wDdjBQBW+bzZPLdjmgyXkCX7C6HXEi+Ggn6LrppSFfbVArfgmgyXkKX/OJ7CkE2R4K/je5EpGutFx6bAEKO1dJOIsp7iH5HvIFuUi0Z2Agi7/5XEI3DVnS1rxinEHRHJJkX0SVbM/FtpUmN6xFNxi50jX2mylnFJ5Gk1qEb7+0JCtRkyFnnaU0XLufdX0WSe6TpxBLGXxOp19R1Wa8r0/sTgtKU69bcuVgIQnIXM5zGcu/mrqaQSxB3GJ+HkbBG0/f2LiXZX1TCcsd4JdL2Jndo5U5tSMZv9K+wXtgiEtT3//9Fd4v1xDPyu5FjfyMhGQfpX5dhY+qQ7JDpAv5Cd72pLIslcy3D/kRCMv6hf1MxczujlpKKnuK/o7vSToq5mVzOCL3BJEvwilxLowNuIy/9IXgA3cVG8w3TOp9O7CTlznBQG1/fQ9LhdJfXUugFhos5l9x+QnTeqw3n3FdqD0eK+wHd/L681DN4LmG+RTQZD9YTvr4oj0eK/BrdWfWlkBvpdEZ8gWgykmww5WaTeIDcjHsuUuyn6E5NHLuI+5kM2o1oMp4tYtzWMXK7+uVI0TvRTW+wKNlO2BbJq5YNpgbrPhZa9ktejxT/DromNrhkt++tSD6b0E1GOtEEhC2IXh7eRFcnCPLmeC2Sx1Z005BONflSwPuIJmUjOlnaUjf5TNuA6Pi70DW5fKauO9P/LI7GvjbzTKZVNQefwo0mw8QGUzXllfdyBqaxL5Y9Wt5lruVjjNBkjKCbk2vZkQHnUOd3iAbpgQT13xeJswfdggSxWu3yPLLfi4SkyAbX3RVWdQe+xGcYQzaYLqwwxrhydQnVjCIhYClft2KDqWmGryYBvcGVgpSDxFncdLFtib+ERFOQEPq8wSIYci5utQl4KZvJ2uu8Kh4U3EEBTE3woPUds6/jiriSRLvixAkxxrQT4oQYQ8BYOj5DnBBjCBhLx2eIE2IMAWPp+AxxQowhYCwdnyFOiDEEjKXjM8QJMYaAsXR8hjghxhAwlo7PECfEGALG0vEZ4oQYQ8BYOj5DnBBjCBhLx2eIE2IMAWPp+AxxQowhYCwdnyFOiDEEjKXjM8QJMYaAsXR8hjghpREY9PchpQPXadimGbINYOSpp94aQkB+yB/+JlBey+MCNyJDSL9N++rXvvPj5Rey8htyDaT09yG3I/0sY9oP5t76RWA2BuuQQ4gGVPrywLGrkCJN2xex8TE9EJDHte5ANKjSH1vG5PF8WU3bZo31YwUQkOVpGPkZ0eBKX54AIc8x6XWiom0Y6q0KBPKWsY8IsigSyAmJgFKlqsgyJo9+GmtOyBgSCf/mLWPynxpkGZuEOCEJidCu5TGz8jjXXmdjH3LMCdGo1dDPWsackBoIiIXIW8bGiInZui4hAnlnYwlDu+ssBGLL2DdZBn4sPQJysbgKkcfAfob4k+QAwZsj4Ag4Ao7A+ELgKB9MjhKef5zZAAAAAElFTkSuQmCC;" vertex="1" parent="1">
          <mxGeometry x="850" y="95" width="20" height="20" as="geometry" />
        </mxCell>
        <mxCell id="NzfTSA1hqwJ1rz7dSjbP-18" value="&lt;font style=&quot;font-size: 9px;&quot;&gt;Возможность отфильтровать свои задачи по статусу, дисциплине, тегу, приоритету&amp;nbsp;&amp;nbsp;&lt;/font&gt;" style="text;html=1;whiteSpace=wrap;overflow=hidden;rounded=0;" vertex="1" parent="1">
          <mxGeometry x="930" y="80" width="140" height="70" as="geometry" />
        </mxCell>
        <mxCell id="NzfTSA1hqwJ1rz7dSjbP-20" style="edgeStyle=orthogonalEdgeStyle;rounded=0;orthogonalLoop=1;jettySize=auto;html=1;entryX=0.188;entryY=0.989;entryDx=0;entryDy=0;entryPerimeter=0;" edge="1" parent="1" source="NzfTSA1hqwJ1rz7dSjbP-19" target="UtrABaLbU96Mtq_oK4z2-69">
          <mxGeometry relative="1" as="geometry">
            <mxPoint x="470" y="180" as="targetPoint" />
          </mxGeometry>
        </mxCell>
        <mxCell id="NzfTSA1hqwJ1rz7dSjbP-19" value="&lt;div style=&quot;&quot;&gt;&lt;span style=&quot;font-size: 7px; background-color: initial;&quot;&gt;к списку&lt;/span&gt;&lt;/div&gt;" style="shape=singleArrow;direction=west;whiteSpace=wrap;html=1;align=center;arrowWidth=0.6428571428571374;arrowSize=0.18571428571428408;" vertex="1" parent="1">
          <mxGeometry x="525" y="335" width="50" height="20" as="geometry" />
        </mxCell>
        <mxCell id="NzfTSA1hqwJ1rz7dSjbP-28" value="" style="group" vertex="1" connectable="0" parent="1">
          <mxGeometry x="604.21" y="230" width="31.589999999999918" height="10" as="geometry" />
        </mxCell>
        <mxCell id="NzfTSA1hqwJ1rz7dSjbP-22" value="" style="verticalLabelPosition=bottom;verticalAlign=top;html=1;shape=mxgraph.basic.star;fillColor=#FFFF00;" vertex="1" parent="NzfTSA1hqwJ1rz7dSjbP-28">
          <mxGeometry width="10.53" height="10" as="geometry" />
        </mxCell>
        <mxCell id="NzfTSA1hqwJ1rz7dSjbP-23" value="" style="verticalLabelPosition=bottom;verticalAlign=top;html=1;shape=mxgraph.basic.star;fillColor=#FFFF00;" vertex="1" parent="NzfTSA1hqwJ1rz7dSjbP-28">
          <mxGeometry x="10.529999999999973" width="10.53" height="10" as="geometry" />
        </mxCell>
        <mxCell id="NzfTSA1hqwJ1rz7dSjbP-24" value="" style="verticalLabelPosition=bottom;verticalAlign=top;html=1;shape=mxgraph.basic.star;fillColor=#FFFF00;" vertex="1" parent="NzfTSA1hqwJ1rz7dSjbP-28">
          <mxGeometry x="21.059999999999945" width="10.53" height="10" as="geometry" />
        </mxCell>
        <mxCell id="NzfTSA1hqwJ1rz7dSjbP-30" value="" style="group" vertex="1" connectable="0" parent="1">
          <mxGeometry x="604.21" y="170" width="31.589999999999918" height="10" as="geometry" />
        </mxCell>
        <mxCell id="NzfTSA1hqwJ1rz7dSjbP-25" value="" style="verticalLabelPosition=bottom;verticalAlign=top;html=1;shape=mxgraph.basic.star;fillColor=#FFFF00;" vertex="1" parent="NzfTSA1hqwJ1rz7dSjbP-30">
          <mxGeometry width="10.53" height="10" as="geometry" />
        </mxCell>
        <mxCell id="NzfTSA1hqwJ1rz7dSjbP-26" value="" style="verticalLabelPosition=bottom;verticalAlign=top;html=1;shape=mxgraph.basic.star;fillColor=#FFFF00;" vertex="1" parent="NzfTSA1hqwJ1rz7dSjbP-30">
          <mxGeometry x="10.529999999999973" width="10.53" height="10" as="geometry" />
        </mxCell>
        <mxCell id="NzfTSA1hqwJ1rz7dSjbP-27" value="" style="verticalLabelPosition=bottom;verticalAlign=top;html=1;shape=mxgraph.basic.star;fillColor=none;" vertex="1" parent="NzfTSA1hqwJ1rz7dSjbP-30">
          <mxGeometry x="21.059999999999945" width="10.53" height="10" as="geometry" />
        </mxCell>
        <mxCell id="NzfTSA1hqwJ1rz7dSjbP-31" value="" style="group" vertex="1" connectable="0" parent="1">
          <mxGeometry x="590" y="350" width="31.589999999999918" height="10" as="geometry" />
        </mxCell>
        <mxCell id="NzfTSA1hqwJ1rz7dSjbP-32" value="" style="verticalLabelPosition=bottom;verticalAlign=top;html=1;shape=mxgraph.basic.star;fillColor=#FFFF00;" vertex="1" parent="NzfTSA1hqwJ1rz7dSjbP-31">
          <mxGeometry width="10.53" height="10" as="geometry" />
        </mxCell>
        <mxCell id="NzfTSA1hqwJ1rz7dSjbP-33" value="" style="verticalLabelPosition=bottom;verticalAlign=top;html=1;shape=mxgraph.basic.star;fillColor=#FFFF00;" vertex="1" parent="NzfTSA1hqwJ1rz7dSjbP-31">
          <mxGeometry x="10.529999999999973" width="10.53" height="10" as="geometry" />
        </mxCell>
        <mxCell id="NzfTSA1hqwJ1rz7dSjbP-34" value="" style="verticalLabelPosition=bottom;verticalAlign=top;html=1;shape=mxgraph.basic.star;fillColor=none;" vertex="1" parent="NzfTSA1hqwJ1rz7dSjbP-31">
          <mxGeometry x="21.059999999999945" width="10.53" height="10" as="geometry" />
        </mxCell>
        <mxCell id="NzfTSA1hqwJ1rz7dSjbP-37" style="edgeStyle=orthogonalEdgeStyle;rounded=0;orthogonalLoop=1;jettySize=auto;html=1;" edge="1" parent="1" source="NzfTSA1hqwJ1rz7dSjbP-35">
          <mxGeometry relative="1" as="geometry">
            <mxPoint x="590" y="360.0000000000001" as="targetPoint" />
          </mxGeometry>
        </mxCell>
        <mxCell id="NzfTSA1hqwJ1rz7dSjbP-35" value="&lt;font style=&quot;font-size: 9px;&quot;&gt;Задаче можно задать приоритет от меньшего к наивысшему&lt;/font&gt;" style="text;html=1;whiteSpace=wrap;overflow=hidden;rounded=0;" vertex="1" parent="1">
          <mxGeometry x="356.25" y="350" width="150" height="50" as="geometry" />
        </mxCell>
      </root>
    </mxGraphModel>
  </diagram>
</mxfile>
